<mxfile host="Electron" modified="2024-05-29T08:05:31.338Z" agent="Mozilla/5.0 (Windows NT 10.0; Win64; x64) AppleWebKit/537.36 (KHTML, like Gecko) draw.io/24.4.7 Chrome/124.0.6367.207 Electron/30.0.6 Safari/537.36" etag="3Qq9FQl08EYbUKvZirYO" version="24.4.7" type="device">
  <diagram name="Cas Snapchat" id="SnLMxdV_M7p_HuNbtB5K">
    <mxGraphModel dx="2022" dy="703" grid="1" gridSize="10" guides="1" tooltips="1" connect="1" arrows="1" fold="1" page="1" pageScale="1" pageWidth="827" pageHeight="1169" math="0" shadow="0">
      <root>
        <mxCell id="0" />
        <mxCell id="1" parent="0" />
        <mxCell id="2WUiKekIiBLe01Ydcuam-8" style="edgeStyle=orthogonalEdgeStyle;rounded=0;orthogonalLoop=1;jettySize=auto;html=1;entryX=1;entryY=0.75;entryDx=0;entryDy=0;" edge="1" parent="1" source="gLXzUw3QDKdMoVa2jsXe-2" target="2WUiKekIiBLe01Ydcuam-3">
          <mxGeometry relative="1" as="geometry">
            <Array as="points">
              <mxPoint x="590" y="415" />
              <mxPoint x="590" y="415" />
            </Array>
          </mxGeometry>
        </mxCell>
        <mxCell id="gLXzUw3QDKdMoVa2jsXe-2" value="" style="shape=cylinder3;whiteSpace=wrap;html=1;boundedLbl=1;backgroundOutline=1;size=15;" parent="1" vertex="1">
          <mxGeometry x="680" y="358" width="60" height="80" as="geometry" />
        </mxCell>
        <mxCell id="gLXzUw3QDKdMoVa2jsXe-3" value="&lt;b&gt;&lt;font color=&quot;#cc0066&quot;&gt;cache_controller.db&lt;/font&gt;&lt;/b&gt;" style="text;html=1;align=center;verticalAlign=middle;resizable=0;points=[];autosize=1;strokeColor=none;fillColor=none;" parent="1" vertex="1">
          <mxGeometry x="640" y="438" width="140" height="30" as="geometry" />
        </mxCell>
        <mxCell id="gLXzUw3QDKdMoVa2jsXe-6" value="&lt;font color=&quot;#00994d&quot;&gt;&lt;b&gt;CACHE_FILE_METADATA:&lt;/b&gt;&lt;/font&gt;&lt;b style=&quot;background-color: initial;&quot;&gt;&lt;font color=&quot;#0000ff&quot;&gt;CACHE_KEY:&lt;/font&gt;&lt;font color=&quot;#ff00ff&quot;&gt;Filename&lt;/font&gt;&lt;/b&gt;" style="text;html=1;align=center;verticalAlign=middle;resizable=0;points=[];autosize=1;strokeColor=none;fillColor=none;" parent="1" vertex="1">
          <mxGeometry x="350" y="358" width="300" height="30" as="geometry" />
        </mxCell>
        <mxCell id="2WUiKekIiBLe01Ydcuam-13" value="" style="edgeStyle=orthogonalEdgeStyle;rounded=0;orthogonalLoop=1;jettySize=auto;html=1;" edge="1" parent="1" source="gLXzUw3QDKdMoVa2jsXe-7" target="2WUiKekIiBLe01Ydcuam-12">
          <mxGeometry relative="1" as="geometry" />
        </mxCell>
        <mxCell id="gLXzUw3QDKdMoVa2jsXe-7" value="Processor1" style="rounded=0;whiteSpace=wrap;html=1;" parent="1" vertex="1">
          <mxGeometry x="200" y="490" width="120" height="60" as="geometry" />
        </mxCell>
        <mxCell id="2WUiKekIiBLe01Ydcuam-4" value="" style="edgeStyle=orthogonalEdgeStyle;rounded=0;orthogonalLoop=1;jettySize=auto;html=1;" edge="1" parent="1" source="2WUiKekIiBLe01Ydcuam-1" target="2WUiKekIiBLe01Ydcuam-2">
          <mxGeometry relative="1" as="geometry" />
        </mxCell>
        <mxCell id="2WUiKekIiBLe01Ydcuam-1" value="Input (Folder)" style="shape=parallelogram;perimeter=parallelogramPerimeter;whiteSpace=wrap;html=1;fixedSize=1;" vertex="1" parent="1">
          <mxGeometry x="-200" y="370" width="120" height="60" as="geometry" />
        </mxCell>
        <mxCell id="2WUiKekIiBLe01Ydcuam-5" value="" style="edgeStyle=orthogonalEdgeStyle;rounded=0;orthogonalLoop=1;jettySize=auto;html=1;" edge="1" parent="1" source="2WUiKekIiBLe01Ydcuam-2" target="2WUiKekIiBLe01Ydcuam-3">
          <mxGeometry relative="1" as="geometry" />
        </mxCell>
        <mxCell id="2WUiKekIiBLe01Ydcuam-2" value="InputReader" style="rounded=0;whiteSpace=wrap;html=1;" vertex="1" parent="1">
          <mxGeometry y="370" width="120" height="60" as="geometry" />
        </mxCell>
        <mxCell id="2WUiKekIiBLe01Ydcuam-10" value="" style="edgeStyle=orthogonalEdgeStyle;rounded=0;orthogonalLoop=1;jettySize=auto;html=1;" edge="1" parent="1" source="2WUiKekIiBLe01Ydcuam-3" target="gLXzUw3QDKdMoVa2jsXe-7">
          <mxGeometry relative="1" as="geometry" />
        </mxCell>
        <mxCell id="2WUiKekIiBLe01Ydcuam-3" value="RequestManager1" style="rounded=0;whiteSpace=wrap;html=1;" vertex="1" parent="1">
          <mxGeometry x="200" y="370" width="120" height="60" as="geometry" />
        </mxCell>
        <mxCell id="2WUiKekIiBLe01Ydcuam-7" style="edgeStyle=orthogonalEdgeStyle;rounded=0;orthogonalLoop=1;jettySize=auto;html=1;entryX=0;entryY=0;entryDx=0;entryDy=27.5;entryPerimeter=0;exitX=1;exitY=0.25;exitDx=0;exitDy=0;" edge="1" parent="1" source="2WUiKekIiBLe01Ydcuam-3" target="gLXzUw3QDKdMoVa2jsXe-2">
          <mxGeometry relative="1" as="geometry" />
        </mxCell>
        <mxCell id="2WUiKekIiBLe01Ydcuam-9" value="&lt;font color=&quot;#6600cc&quot;&gt;&lt;b&gt;ResultSet&lt;/b&gt;&lt;/font&gt;" style="text;html=1;align=center;verticalAlign=middle;resizable=0;points=[];autosize=1;strokeColor=none;fillColor=none;" vertex="1" parent="1">
          <mxGeometry x="460" y="411" width="80" height="30" as="geometry" />
        </mxCell>
        <mxCell id="2WUiKekIiBLe01Ydcuam-11" value="&lt;font color=&quot;#6600cc&quot;&gt;&lt;b&gt;ResultSet&lt;/b&gt;&lt;/font&gt;" style="text;html=1;align=center;verticalAlign=middle;resizable=0;points=[];autosize=1;strokeColor=none;fillColor=none;" vertex="1" parent="1">
          <mxGeometry x="250" y="441" width="80" height="30" as="geometry" />
        </mxCell>
        <mxCell id="2WUiKekIiBLe01Ydcuam-23" value="" style="edgeStyle=orthogonalEdgeStyle;rounded=0;orthogonalLoop=1;jettySize=auto;html=1;" edge="1" parent="1" source="2WUiKekIiBLe01Ydcuam-12" target="2WUiKekIiBLe01Ydcuam-22">
          <mxGeometry relative="1" as="geometry" />
        </mxCell>
        <mxCell id="2WUiKekIiBLe01Ydcuam-12" value="Manager2" style="rounded=0;whiteSpace=wrap;html=1;" vertex="1" parent="1">
          <mxGeometry x="200" y="610" width="120" height="60" as="geometry" />
        </mxCell>
        <mxCell id="2WUiKekIiBLe01Ydcuam-17" style="edgeStyle=orthogonalEdgeStyle;rounded=0;orthogonalLoop=1;jettySize=auto;html=1;entryX=1;entryY=0.75;entryDx=0;entryDy=0;" edge="1" parent="1" source="2WUiKekIiBLe01Ydcuam-14" target="2WUiKekIiBLe01Ydcuam-12">
          <mxGeometry relative="1" as="geometry">
            <Array as="points">
              <mxPoint x="500" y="655" />
              <mxPoint x="500" y="655" />
            </Array>
          </mxGeometry>
        </mxCell>
        <mxCell id="2WUiKekIiBLe01Ydcuam-14" value="" style="shape=cylinder3;whiteSpace=wrap;html=1;boundedLbl=1;backgroundOutline=1;size=15;" vertex="1" parent="1">
          <mxGeometry x="770" y="600" width="60" height="80" as="geometry" />
        </mxCell>
        <mxCell id="2WUiKekIiBLe01Ydcuam-15" value="&lt;b&gt;&lt;font color=&quot;#cc0066&quot;&gt;arroyo.db&lt;/font&gt;&lt;/b&gt;" style="text;html=1;align=center;verticalAlign=middle;resizable=0;points=[];autosize=1;strokeColor=none;fillColor=none;" vertex="1" parent="1">
          <mxGeometry x="760" y="680" width="80" height="30" as="geometry" />
        </mxCell>
        <mxCell id="2WUiKekIiBLe01Ydcuam-16" style="edgeStyle=orthogonalEdgeStyle;rounded=0;orthogonalLoop=1;jettySize=auto;html=1;entryX=0;entryY=0;entryDx=0;entryDy=27.5;entryPerimeter=0;" edge="1" parent="1" source="2WUiKekIiBLe01Ydcuam-12" target="2WUiKekIiBLe01Ydcuam-14">
          <mxGeometry relative="1" as="geometry">
            <Array as="points">
              <mxPoint x="495" y="628" />
            </Array>
          </mxGeometry>
        </mxCell>
        <mxCell id="2WUiKekIiBLe01Ydcuam-18" value="&lt;font color=&quot;#00994d&quot;&gt;&lt;b&gt;CONVERSATION_MESSAGE:&lt;/b&gt;&lt;/font&gt;&lt;b style=&quot;background-color: initial;&quot;&gt;&lt;font color=&quot;#0000ff&quot;&gt;CLIENT_CONVERSATION_ID:&lt;/font&gt;&lt;font color=&quot;#ff00ff&quot;&gt;conversation_id&lt;/font&gt;&lt;/b&gt;" style="text;html=1;align=center;verticalAlign=middle;resizable=0;points=[];autosize=1;strokeColor=none;fillColor=none;" vertex="1" parent="1">
          <mxGeometry x="320" y="600" width="450" height="30" as="geometry" />
        </mxCell>
        <mxCell id="2WUiKekIiBLe01Ydcuam-19" value="&lt;b style=&quot;background-color: initial;&quot;&gt;&lt;font color=&quot;#ff00ff&quot;&gt;Filename&lt;/font&gt;&lt;/b&gt;" style="text;html=1;align=center;verticalAlign=middle;resizable=0;points=[];autosize=1;strokeColor=none;fillColor=none;" vertex="1" parent="1">
          <mxGeometry x="120" y="370" width="80" height="30" as="geometry" />
        </mxCell>
        <mxCell id="2WUiKekIiBLe01Ydcuam-20" value="&lt;b style=&quot;background-color: initial;&quot;&gt;&lt;font color=&quot;#ff00ff&quot;&gt;conversation_id&lt;/font&gt;&lt;/b&gt;" style="text;html=1;align=center;verticalAlign=middle;resizable=0;points=[];autosize=1;strokeColor=none;fillColor=none;" vertex="1" parent="1">
          <mxGeometry x="250" y="560" width="120" height="30" as="geometry" />
        </mxCell>
        <mxCell id="2WUiKekIiBLe01Ydcuam-21" value="&lt;font color=&quot;#6600cc&quot;&gt;&lt;b&gt;ResultSet&lt;/b&gt;&lt;/font&gt;" style="text;html=1;align=center;verticalAlign=middle;resizable=0;points=[];autosize=1;strokeColor=none;fillColor=none;" vertex="1" parent="1">
          <mxGeometry x="510" y="650" width="80" height="30" as="geometry" />
        </mxCell>
        <mxCell id="2WUiKekIiBLe01Ydcuam-22" value="Processor2" style="rounded=0;whiteSpace=wrap;html=1;" vertex="1" parent="1">
          <mxGeometry x="200" y="730" width="120" height="60" as="geometry" />
        </mxCell>
        <mxCell id="2WUiKekIiBLe01Ydcuam-24" value="&lt;font color=&quot;#6600cc&quot;&gt;&lt;b&gt;ResultSet&lt;/b&gt;&lt;/font&gt;" style="text;html=1;align=center;verticalAlign=middle;resizable=0;points=[];autosize=1;strokeColor=none;fillColor=none;" vertex="1" parent="1">
          <mxGeometry x="250" y="685" width="80" height="30" as="geometry" />
        </mxCell>
        <mxCell id="2WUiKekIiBLe01Ydcuam-25" value="&lt;b&gt;&lt;font color=&quot;#ff8000&quot;&gt;Field to select&lt;/font&gt;&lt;/b&gt;" style="text;html=1;align=center;verticalAlign=middle;resizable=0;points=[];autosize=1;strokeColor=none;fillColor=none;" vertex="1" parent="1">
          <mxGeometry x="450" y="340" width="100" height="30" as="geometry" />
        </mxCell>
        <mxCell id="2WUiKekIiBLe01Ydcuam-26" value="&lt;b&gt;&lt;font color=&quot;#ff8000&quot;&gt;Field to select&lt;/font&gt;&lt;/b&gt;" style="text;html=1;align=center;verticalAlign=middle;resizable=0;points=[];autosize=1;strokeColor=none;fillColor=none;" vertex="1" parent="1">
          <mxGeometry x="500" y="585" width="100" height="30" as="geometry" />
        </mxCell>
        <mxCell id="2WUiKekIiBLe01Ydcuam-27" value="JobManager" style="rounded=0;whiteSpace=wrap;html=1;" vertex="1" parent="1">
          <mxGeometry x="-80" y="600" width="120" height="60" as="geometry" />
        </mxCell>
      </root>
    </mxGraphModel>
  </diagram>
</mxfile>
